<?xml version="1.0" encoding="UTF-8"?>
<svg xmlns="http://www.w3.org/2000/svg" viewBox="0 0 512 512">
  <defs>
    <linearGradient id="g" x1="0" y1="0" x2="1" y2="1">
      <stop offset="0%" stop-color="#0000FF"/>
      <stop offset="100%" stop-color="#66A3FF"/>
    </linearGradient>
  </defs>
  <rect width="512" height="512" rx="96" fill="url(#g)"/>
  <g fill="#fff">
    <path d="M170 128h172c58 0 98 38 98 93c0 43-23 75-64 87v2c34 10 54 36 54 76c0 59-43 98-110 98H170V128zm106 144c34 0 54-17 54-44c0-28-19-45-54-45h-56v89h56zm11 149c38 0 60-18 60-48c0-29-21-47-60-47h-67v95h67z"/>
  </g>
</svg>